<svg width="16" height="20" viewBox="0 0 16 20" fill="none" xmlns="http://www.w3.org/2000/svg">
<g clip-path="url(#clip0_61385:198)">
<path d="M7.999 0.961365C3.582 0.961365 0 5.1106 0 10.2291C0 14.3229 2.292 17.796 5.472 19.0225C5.872 19.1079 6.018 18.8217 6.018 18.576C6.018 18.3556 6.011 17.7729 6.007 16.9998C3.782 17.5594 3.312 15.7571 3.312 15.7571C2.949 14.6864 2.424 14.4014 2.424 14.4014C1.697 13.8267 2.478 13.8383 2.478 13.8383C3.281 13.9041 3.703 14.7937 3.703 14.7937C4.417 16.2094 5.576 15.801 6.032 15.5633C6.104 14.9644 6.311 14.556 6.54 14.3241C4.764 14.0898 2.896 13.2948 2.896 9.74444C2.896 8.73252 3.208 7.90521 3.72 7.25675C3.637 7.02252 3.363 6.07983 3.798 4.80483C3.798 4.80483 4.47 4.5556 5.998 5.75444C6.636 5.54906 7.32 5.44636 8.001 5.4429C8.68 5.44752 9.365 5.54906 10.004 5.7556C11.531 4.55675 12.202 4.80598 12.202 4.80598C12.638 6.08213 12.364 7.02367 12.282 7.2579C12.795 7.90636 13.104 8.73367 13.104 9.7456C13.104 13.3052 11.234 14.0887 9.452 14.3183C9.739 14.6044 9.995 15.1698 9.995 16.0341C9.995 17.2733 9.985 18.2725 9.985 18.576C9.985 18.8241 10.129 19.1125 10.535 19.0214C13.71 17.7937 16 14.3217 16 10.2291C16 5.1106 12.418 0.961365 7.999 0.961365Z" fill="#C4C4CC"/>
</g>
<defs>
<clipPath id="clip0_61385:198">
<rect width="16" height="18.4615" fill="white" transform="translate(0 0.769226)"/>
</clipPath>
</defs>
</svg>
